<svg width="24" height="24" viewBox="0 0 24 24" fill="none" xmlns="http://www.w3.org/2000/svg">
<path d="M6.22999 20C5.76999 20 5.38599 19.846 5.07799 19.538C4.76932 19.2293 4.61499 18.845 4.61499 18.385V5.615C4.61499 5.155 4.76932 4.771 5.07799 4.463C5.38666 4.15434 5.77099 4 6.23099 4H8.99999C9.45999 4 9.84432 4.15434 10.153 4.463C10.4617 4.77167 10.616 5.156 10.616 5.616V7.312C9.57732 7.622 8.73399 8.20967 8.08599 9.075C7.43932 9.94034 7.11599 10.9153 7.11599 12C7.11599 13.0847 7.43932 14.0597 8.08599 14.925C8.73266 15.7903 9.57599 16.3783 10.616 16.689V18.385C10.616 18.845 10.4617 19.2293 10.153 19.538C9.84432 19.8467 9.45999 20.0007 8.99999 20H6.22999ZM15 20C14.54 20 14.1557 19.846 13.847 19.538C13.5383 19.23 13.3843 18.8457 13.385 18.385V16.689C14.423 16.3783 15.2657 15.7903 15.913 14.925C16.5603 14.0597 16.8843 13.0847 16.885 12C16.8857 10.9153 16.5623 9.94034 15.915 9.075C15.2677 8.20967 14.4243 7.62167 13.385 7.311V5.615C13.385 5.155 13.5393 4.77067 13.848 4.462C14.1567 4.15334 14.5407 3.99934 15 4H17.77C18.23 4 18.614 4.15434 18.922 4.463C19.2307 4.771 19.385 5.15534 19.385 5.616V18.385C19.385 18.845 19.2307 19.2293 18.922 19.538C18.614 19.846 18.23 20 17.77 20H15ZM11.5 14.5V12.5H9.49999V11.5H11.5V9.5H12.5V11.5H14.5V12.5H12.5V14.5H11.5Z" fill="#CAC6C7"/>
</svg>
