<svg width="24" height="24" viewBox="0 0 24 24" fill="none" xmlns="http://www.w3.org/2000/svg">
<path d="M16.2857 2.57129H18.8572C19.3118 2.57129 19.7479 2.7519 20.0693 3.07339C20.3908 3.39488 20.5714 3.83092 20.5714 4.28557V21.4284C20.5714 21.8831 20.3908 22.3191 20.0693 22.6406C19.7479 22.9621 19.3118 23.1427 18.8572 23.1427H5.14287C4.68822 23.1427 4.25218 22.9621 3.93069 22.6406C3.6092 22.3191 3.42859 21.8831 3.42859 21.4284V4.28557C3.42859 3.83092 3.6092 3.39488 3.93069 3.07339C4.25218 2.7519 4.68822 2.57129 5.14287 2.57129H7.7143" stroke="#CAC6C7" stroke-linecap="round" stroke-linejoin="round"/>
<path d="M14.5714 0.856934H9.42858C8.97392 0.856934 8.53788 1.03755 8.21639 1.35904C7.8949 1.68053 7.71429 2.11656 7.71429 2.57122V3.42836C7.71429 3.88302 7.8949 4.31905 8.21639 4.64055C8.53788 4.96204 8.97392 5.14265 9.42858 5.14265H14.5714C15.0261 5.14265 15.4621 4.96204 15.7836 4.64055C16.1051 4.31905 16.2857 3.88302 16.2857 3.42836V2.57122C16.2857 2.11656 16.1051 1.68053 15.7836 1.35904C15.4621 1.03755 15.0261 0.856934 14.5714 0.856934ZM10.8051 8.93122C10.6096 8.93122 10.4221 9.00888 10.2839 9.14712C10.1457 9.28536 10.068 9.47286 10.068 9.66836V11.7375H7.99886C7.80336 11.7375 7.61586 11.8152 7.47762 11.9534C7.33938 12.0917 7.26172 12.2791 7.26172 12.4746V14.8661C7.26172 15.2724 7.59258 15.6032 7.99886 15.6032H10.068V17.6724C10.068 18.0786 10.3989 18.4095 10.8051 18.4095H13.1966C13.3921 18.4095 13.5796 18.3318 13.7178 18.1936C13.8561 18.0554 13.9337 17.8679 13.9337 17.6724V15.5998H16.0029C16.1984 15.5998 16.3859 15.5221 16.5241 15.3839C16.6623 15.2456 16.74 15.0582 16.74 14.8626V12.4746C16.7396 12.2794 16.6617 12.0924 16.5235 11.9545C16.3853 11.8166 16.1981 11.7392 16.0029 11.7392H13.9337V9.66665C13.9333 9.47144 13.8554 9.28439 13.7172 9.14652C13.579 9.00865 13.3918 8.93122 13.1966 8.93122H10.8051Z" stroke="#CAC6C7" stroke-linecap="round" stroke-linejoin="round"/>
</svg>
